<svg xmlns="http://www.w3.org/2000/svg" viewBox="0 0 24 24" fill="#FFFFFF">
  <path d="M0 0h24v24H0z" fill="none"/>
  <path d="M12 22c1.1 0 2-.9 2-2h-4c0 1.1.9 2 2 2zm6-6v-5c0-3.07-1.63-5.64-4.5-6.32V4a1.5 1.5 0 0 0-3 0v.68C7.64 5.36 6 7.92 6 11v5l-2 2v1h16v-1l-2-2zm-2 1H8v-6c0-2.48 1.51-4.5 4-4.5s4 2.02 4 4.5v6z"/>
  <path d="M4.26 9.91 2.84 8.5A9.97 9.97 0 0 0 1 13h2c0-1.13.3-2.19.82-3.09zm16.74 3.09h2c0-1.63-.39-3.16-1.09-4.5l-1.41 1.41c.32.56.5 1.18.5 1.84zM6 3.77 4.58 2.36A11.91 11.91 0 0 0 1 11h2c0-2.76 1.12-5.26 3-7.23zm15.42-1.41L20 3.77A9.96 9.96 0 0 1 21 11h2c0-3.1-1.19-5.92-3.58-8.64z"/>
</svg>
